<mxfile host="Electron" agent="Mozilla/5.0 (Windows NT 10.0; Win64; x64) AppleWebKit/537.36 (KHTML, like Gecko) draw.io/26.2.15 Chrome/134.0.6998.205 Electron/35.2.1 Safari/537.36" version="26.2.15">
  <diagram name="Page-1" id="MdiAptzKf-XJUWhk3Bu5">
    <mxGraphModel dx="260" dy="621" grid="1" gridSize="10" guides="1" tooltips="1" connect="1" arrows="1" fold="1" page="1" pageScale="1" pageWidth="827" pageHeight="1169" math="0" shadow="0">
      <root>
        <mxCell id="0" />
        <mxCell id="1" parent="0" />
        <mxCell id="b6YTs4-Xwwuf5XrhBAoU-1" value="User&lt;div&gt;&lt;br&gt;&lt;/div&gt;" style="shape=umlActor;verticalLabelPosition=bottom;verticalAlign=top;html=1;" vertex="1" parent="1">
          <mxGeometry x="60" y="280" width="30" height="60" as="geometry" />
        </mxCell>
        <mxCell id="b6YTs4-Xwwuf5XrhBAoU-8" value="" style="edgeStyle=none;rounded=0;orthogonalLoop=1;jettySize=auto;html=1;" edge="1" parent="1" source="b6YTs4-Xwwuf5XrhBAoU-2" target="b6YTs4-Xwwuf5XrhBAoU-7">
          <mxGeometry relative="1" as="geometry" />
        </mxCell>
        <mxCell id="b6YTs4-Xwwuf5XrhBAoU-15" value="" style="edgeStyle=none;rounded=0;orthogonalLoop=1;jettySize=auto;html=1;" edge="1" parent="1" source="b6YTs4-Xwwuf5XrhBAoU-2" target="b6YTs4-Xwwuf5XrhBAoU-13">
          <mxGeometry relative="1" as="geometry" />
        </mxCell>
        <mxCell id="b6YTs4-Xwwuf5XrhBAoU-2" value="Profile άλλου χρήστη" style="shape=umlBoundary;whiteSpace=wrap;html=1;" vertex="1" parent="1">
          <mxGeometry x="180" y="150" width="100" height="80" as="geometry" />
        </mxCell>
        <mxCell id="b6YTs4-Xwwuf5XrhBAoU-4" style="edgeStyle=none;rounded=0;orthogonalLoop=1;jettySize=auto;html=1;exitX=0.5;exitY=0.5;exitDx=0;exitDy=0;exitPerimeter=0;entryX=-0.019;entryY=0.505;entryDx=0;entryDy=0;entryPerimeter=0;" edge="1" parent="1" source="b6YTs4-Xwwuf5XrhBAoU-1" target="b6YTs4-Xwwuf5XrhBAoU-2">
          <mxGeometry relative="1" as="geometry" />
        </mxCell>
        <mxCell id="b6YTs4-Xwwuf5XrhBAoU-9" value="" style="edgeStyle=none;rounded=0;orthogonalLoop=1;jettySize=auto;html=1;" edge="1" parent="1" source="b6YTs4-Xwwuf5XrhBAoU-6" target="b6YTs4-Xwwuf5XrhBAoU-7">
          <mxGeometry relative="1" as="geometry" />
        </mxCell>
        <mxCell id="b6YTs4-Xwwuf5XrhBAoU-6" value="profiles" style="ellipse;shape=umlEntity;whiteSpace=wrap;html=1;" vertex="1" parent="1">
          <mxGeometry x="338" y="20" width="80" height="80" as="geometry" />
        </mxCell>
        <mxCell id="b6YTs4-Xwwuf5XrhBAoU-7" value="Φόρτωση&amp;nbsp;&lt;div&gt;profile&lt;/div&gt;" style="ellipse;shape=umlControl;whiteSpace=wrap;html=1;" vertex="1" parent="1">
          <mxGeometry x="343" y="150" width="70" height="80" as="geometry" />
        </mxCell>
        <mxCell id="b6YTs4-Xwwuf5XrhBAoU-19" value="" style="edgeStyle=none;rounded=0;orthogonalLoop=1;jettySize=auto;html=1;" edge="1" parent="1" source="b6YTs4-Xwwuf5XrhBAoU-10" target="b6YTs4-Xwwuf5XrhBAoU-18">
          <mxGeometry relative="1" as="geometry" />
        </mxCell>
        <mxCell id="b6YTs4-Xwwuf5XrhBAoU-10" value="Αναφορά χρήστη" style="shape=umlBoundary;whiteSpace=wrap;html=1;" vertex="1" parent="1">
          <mxGeometry x="200" y="260" width="100" height="80" as="geometry" />
        </mxCell>
        <mxCell id="b6YTs4-Xwwuf5XrhBAoU-11" style="edgeStyle=none;rounded=0;orthogonalLoop=1;jettySize=auto;html=1;exitX=0.5;exitY=0.5;exitDx=0;exitDy=0;exitPerimeter=0;entryX=0.004;entryY=0.51;entryDx=0;entryDy=0;entryPerimeter=0;" edge="1" parent="1" source="b6YTs4-Xwwuf5XrhBAoU-1" target="b6YTs4-Xwwuf5XrhBAoU-10">
          <mxGeometry relative="1" as="geometry" />
        </mxCell>
        <mxCell id="b6YTs4-Xwwuf5XrhBAoU-12" value="Υποβάλλει Αναφορά" style="edgeLabel;html=1;align=center;verticalAlign=middle;resizable=0;points=[];" vertex="1" connectable="0" parent="b6YTs4-Xwwuf5XrhBAoU-11">
          <mxGeometry x="0.0164" y="1" relative="1" as="geometry">
            <mxPoint as="offset" />
          </mxGeometry>
        </mxCell>
        <mxCell id="b6YTs4-Xwwuf5XrhBAoU-16" value="" style="edgeStyle=none;rounded=0;orthogonalLoop=1;jettySize=auto;html=1;" edge="1" parent="1" source="b6YTs4-Xwwuf5XrhBAoU-13" target="b6YTs4-Xwwuf5XrhBAoU-10">
          <mxGeometry relative="1" as="geometry" />
        </mxCell>
        <mxCell id="b6YTs4-Xwwuf5XrhBAoU-13" value="Εμφάνιση Φόρμας&amp;nbsp;&lt;div&gt;Αναφοράς&lt;/div&gt;" style="ellipse;shape=umlControl;whiteSpace=wrap;html=1;" vertex="1" parent="1">
          <mxGeometry x="338" y="260" width="70" height="80" as="geometry" />
        </mxCell>
        <mxCell id="b6YTs4-Xwwuf5XrhBAoU-21" value="" style="edgeStyle=none;rounded=0;orthogonalLoop=1;jettySize=auto;html=1;" edge="1" parent="1" source="b6YTs4-Xwwuf5XrhBAoU-18" target="b6YTs4-Xwwuf5XrhBAoU-20">
          <mxGeometry relative="1" as="geometry" />
        </mxCell>
        <mxCell id="b6YTs4-Xwwuf5XrhBAoU-24" value="" style="edgeStyle=none;rounded=0;orthogonalLoop=1;jettySize=auto;html=1;" edge="1" parent="1" source="b6YTs4-Xwwuf5XrhBAoU-18" target="b6YTs4-Xwwuf5XrhBAoU-22">
          <mxGeometry relative="1" as="geometry" />
        </mxCell>
        <mxCell id="b6YTs4-Xwwuf5XrhBAoU-18" value="καταγραφή αναφοράς" style="ellipse;shape=umlControl;whiteSpace=wrap;html=1;" vertex="1" parent="1">
          <mxGeometry x="413" y="360" width="70" height="80" as="geometry" />
        </mxCell>
        <mxCell id="b6YTs4-Xwwuf5XrhBAoU-20" value="Αναφορές" style="ellipse;shape=umlEntity;whiteSpace=wrap;html=1;" vertex="1" parent="1">
          <mxGeometry x="520" y="360" width="80" height="80" as="geometry" />
        </mxCell>
        <mxCell id="b6YTs4-Xwwuf5XrhBAoU-27" value="" style="edgeStyle=none;rounded=0;orthogonalLoop=1;jettySize=auto;html=1;" edge="1" parent="1" source="b6YTs4-Xwwuf5XrhBAoU-22" target="b6YTs4-Xwwuf5XrhBAoU-25">
          <mxGeometry relative="1" as="geometry" />
        </mxCell>
        <mxCell id="b6YTs4-Xwwuf5XrhBAoU-31" value="" style="edgeStyle=none;rounded=0;orthogonalLoop=1;jettySize=auto;html=1;" edge="1" parent="1" source="b6YTs4-Xwwuf5XrhBAoU-22" target="b6YTs4-Xwwuf5XrhBAoU-30">
          <mxGeometry relative="1" as="geometry" />
        </mxCell>
        <mxCell id="b6YTs4-Xwwuf5XrhBAoU-22" value="ενημερώνει τον admin" style="ellipse;shape=umlControl;whiteSpace=wrap;html=1;" vertex="1" parent="1">
          <mxGeometry x="413" y="480" width="70" height="80" as="geometry" />
        </mxCell>
        <mxCell id="b6YTs4-Xwwuf5XrhBAoU-25" value="Ενημερώσεις Admin" style="shape=umlBoundary;whiteSpace=wrap;html=1;" vertex="1" parent="1">
          <mxGeometry x="510" y="480" width="100" height="80" as="geometry" />
        </mxCell>
        <mxCell id="b6YTs4-Xwwuf5XrhBAoU-28" value="Admin" style="shape=umlActor;verticalLabelPosition=bottom;verticalAlign=top;html=1;" vertex="1" parent="1">
          <mxGeometry x="650" y="480" width="30" height="60" as="geometry" />
        </mxCell>
        <mxCell id="b6YTs4-Xwwuf5XrhBAoU-29" style="edgeStyle=none;rounded=0;orthogonalLoop=1;jettySize=auto;html=1;exitX=0.5;exitY=0.5;exitDx=0;exitDy=0;exitPerimeter=0;entryX=1.001;entryY=0.399;entryDx=0;entryDy=0;entryPerimeter=0;" edge="1" parent="1" source="b6YTs4-Xwwuf5XrhBAoU-28" target="b6YTs4-Xwwuf5XrhBAoU-25">
          <mxGeometry relative="1" as="geometry" />
        </mxCell>
        <mxCell id="b6YTs4-Xwwuf5XrhBAoU-33" value="" style="edgeStyle=none;rounded=0;orthogonalLoop=1;jettySize=auto;html=1;" edge="1" parent="1" source="b6YTs4-Xwwuf5XrhBAoU-30" target="b6YTs4-Xwwuf5XrhBAoU-32">
          <mxGeometry relative="1" as="geometry" />
        </mxCell>
        <mxCell id="b6YTs4-Xwwuf5XrhBAoU-30" value="Εμφάνηση&lt;div&gt;επιβεβαίωσης&lt;/div&gt;&lt;div&gt;υποβολής&lt;/div&gt;" style="ellipse;shape=umlControl;whiteSpace=wrap;html=1;" vertex="1" parent="1">
          <mxGeometry x="250" y="560" width="70" height="80" as="geometry" />
        </mxCell>
        <mxCell id="b6YTs4-Xwwuf5XrhBAoU-32" value="Επιβεβαίωση&lt;div&gt;Υποβολής&lt;/div&gt;" style="shape=umlBoundary;whiteSpace=wrap;html=1;" vertex="1" parent="1">
          <mxGeometry x="200" y="450" width="100" height="80" as="geometry" />
        </mxCell>
        <mxCell id="b6YTs4-Xwwuf5XrhBAoU-35" style="edgeStyle=none;rounded=0;orthogonalLoop=1;jettySize=auto;html=1;exitX=0.5;exitY=0.5;exitDx=0;exitDy=0;exitPerimeter=0;entryX=-0.013;entryY=0.498;entryDx=0;entryDy=0;entryPerimeter=0;" edge="1" parent="1" source="b6YTs4-Xwwuf5XrhBAoU-1" target="b6YTs4-Xwwuf5XrhBAoU-32">
          <mxGeometry relative="1" as="geometry" />
        </mxCell>
        <mxCell id="b6YTs4-Xwwuf5XrhBAoU-41" value="" style="edgeStyle=none;rounded=0;orthogonalLoop=1;jettySize=auto;html=1;" edge="1" parent="1" source="b6YTs4-Xwwuf5XrhBAoU-36" target="b6YTs4-Xwwuf5XrhBAoU-40">
          <mxGeometry relative="1" as="geometry" />
        </mxCell>
        <mxCell id="b6YTs4-Xwwuf5XrhBAoU-36" value="Ακύροση" style="shape=umlBoundary;whiteSpace=wrap;html=1;" vertex="1" parent="1">
          <mxGeometry x="200" y="350" width="100" height="80" as="geometry" />
        </mxCell>
        <mxCell id="b6YTs4-Xwwuf5XrhBAoU-37" style="edgeStyle=none;rounded=0;orthogonalLoop=1;jettySize=auto;html=1;exitX=0.5;exitY=0.5;exitDx=0;exitDy=0;exitPerimeter=0;entryX=-0.021;entryY=0.489;entryDx=0;entryDy=0;entryPerimeter=0;" edge="1" parent="1" source="b6YTs4-Xwwuf5XrhBAoU-1" target="b6YTs4-Xwwuf5XrhBAoU-36">
          <mxGeometry relative="1" as="geometry" />
        </mxCell>
        <mxCell id="b6YTs4-Xwwuf5XrhBAoU-38" value="επιλέγει" style="edgeLabel;html=1;align=center;verticalAlign=middle;resizable=0;points=[];" vertex="1" connectable="0" parent="b6YTs4-Xwwuf5XrhBAoU-37">
          <mxGeometry x="0.2371" y="2" relative="1" as="geometry">
            <mxPoint as="offset" />
          </mxGeometry>
        </mxCell>
        <mxCell id="b6YTs4-Xwwuf5XrhBAoU-40" value="Κλήνει η αναφορά/&lt;div&gt;εμφάνιση του rpofile&lt;/div&gt;" style="ellipse;shape=umlControl;whiteSpace=wrap;html=1;" vertex="1" parent="1">
          <mxGeometry x="320" y="350" width="70" height="80" as="geometry" />
        </mxCell>
        <mxCell id="b6YTs4-Xwwuf5XrhBAoU-42" style="edgeStyle=none;rounded=0;orthogonalLoop=1;jettySize=auto;html=1;entryX=1.017;entryY=0.686;entryDx=0;entryDy=0;entryPerimeter=0;" edge="1" parent="1" source="b6YTs4-Xwwuf5XrhBAoU-40" target="b6YTs4-Xwwuf5XrhBAoU-2">
          <mxGeometry relative="1" as="geometry" />
        </mxCell>
      </root>
    </mxGraphModel>
  </diagram>
</mxfile>
